<svg width="131" height="179" viewBox="0 0 131 179" fill="none" xmlns="http://www.w3.org/2000/svg">
<circle cx="3.5" cy="14.5" r="3.5" transform="rotate(-180 3.5 14.5)" fill="white"/>
<circle cx="26.5" cy="14.5" r="3.5" transform="rotate(-180 26.5 14.5)" fill="white"/>
<circle cx="49.5" cy="14.5" r="3.5" transform="rotate(-180 49.5 14.5)" fill="white"/>
<circle cx="72.5" cy="14.5" r="3.5" transform="rotate(-180 72.5 14.5)" fill="white"/>
<circle cx="95.5" cy="14.5" r="3.5" transform="rotate(-180 95.5 14.5)" fill="white"/>
<circle cx="118.5" cy="14.5" r="3.5" transform="rotate(-180 118.5 14.5)" fill="white"/>
<circle cx="3.5" cy="37.5" r="3.5" transform="rotate(-180 3.5 37.5)" fill="white"/>
<circle cx="26.5" cy="37.5" r="3.5" transform="rotate(-180 26.5 37.5)" fill="white"/>
<circle cx="49.5" cy="37.5" r="3.5" transform="rotate(-180 49.5 37.5)" fill="white"/>
<circle cx="72.5" cy="37.5" r="3.5" transform="rotate(-180 72.5 37.5)" fill="white"/>
<circle cx="95.5" cy="37.5" r="3.5" transform="rotate(-180 95.5 37.5)" fill="white"/>
<circle cx="118.5" cy="37.5" r="3.5" transform="rotate(-180 118.5 37.5)" fill="white"/>
<circle cx="3.5" cy="60.5" r="3.5" transform="rotate(-180 3.5 60.5)" fill="white"/>
<circle cx="26.5" cy="60.5" r="3.5" transform="rotate(-180 26.5 60.5)" fill="white"/>
<circle cx="49.5" cy="60.5" r="3.5" transform="rotate(-180 49.5 60.5)" fill="white"/>
<circle cx="72.5" cy="60.5" r="3.5" transform="rotate(-180 72.5 60.5)" fill="white"/>
<circle cx="95.5" cy="60.5" r="3.5" transform="rotate(-180 95.5 60.5)" fill="white"/>
<circle cx="118.5" cy="60.5" r="3.5" transform="rotate(-180 118.5 60.5)" fill="white"/>
<circle cx="3.5" cy="83.5" r="3.5" transform="rotate(-180 3.5 83.5)" fill="white"/>
<circle cx="26.5" cy="83.5" r="3.5" transform="rotate(-180 26.5 83.5)" fill="white"/>
<circle cx="49.5" cy="83.5" r="3.5" transform="rotate(-180 49.5 83.5)" fill="white"/>
<circle cx="72.5" cy="83.5" r="3.5" transform="rotate(-180 72.5 83.5)" fill="white"/>
<circle cx="95.5" cy="83.5" r="3.5" transform="rotate(-180 95.5 83.5)" fill="white"/>
<circle cx="118.5" cy="83.5" r="3.5" transform="rotate(-180 118.5 83.5)" fill="white"/>
<circle cx="3.5" cy="106.5" r="3.5" transform="rotate(-180 3.5 106.5)" fill="white"/>
<circle cx="26.5" cy="106.5" r="3.5" transform="rotate(-180 26.5 106.5)" fill="white"/>
<circle cx="49.5" cy="106.5" r="3.5" transform="rotate(-180 49.5 106.5)" fill="white"/>
<circle cx="72.5" cy="106.5" r="3.5" transform="rotate(-180 72.5 106.5)" fill="white"/>
<circle cx="95.5" cy="106.5" r="3.5" transform="rotate(-180 95.5 106.5)" fill="white"/>
<circle cx="118.5" cy="106.5" r="3.5" transform="rotate(-180 118.5 106.5)" fill="white"/>
<circle cx="3.5" cy="129.5" r="3.5" transform="rotate(-180 3.5 129.5)" fill="white"/>
<circle cx="26.5" cy="129.5" r="3.5" transform="rotate(-180 26.5 129.5)" fill="white"/>
<circle cx="49.5" cy="129.5" r="3.5" transform="rotate(-180 49.5 129.5)" fill="white"/>
<circle cx="72.5" cy="129.5" r="3.5" transform="rotate(-180 72.5 129.5)" fill="white"/>
<circle cx="95.5" cy="129.5" r="3.5" transform="rotate(-180 95.5 129.5)" fill="white"/>
<circle cx="118.5" cy="129.5" r="3.5" transform="rotate(-180 118.5 129.5)" fill="white"/>
<circle cx="3.5" cy="152.5" r="3.5" transform="rotate(-180 3.5 152.5)" fill="white"/>
<circle cx="26.5" cy="152.5" r="3.5" transform="rotate(-180 26.5 152.5)" fill="white"/>
<circle cx="49.5" cy="152.5" r="3.5" transform="rotate(-180 49.5 152.5)" fill="white"/>
<circle cx="72.5" cy="152.5" r="3.5" transform="rotate(-180 72.5 152.5)" fill="white"/>
<circle cx="95.5" cy="152.5" r="3.5" transform="rotate(-180 95.5 152.5)" fill="white"/>
<circle cx="118.5" cy="152.5" r="3.5" transform="rotate(-180 118.5 152.5)" fill="white"/>
<circle cx="3.5" cy="175.5" r="3.5" transform="rotate(-180 3.5 175.5)" fill="white"/>
<circle cx="26.5" cy="175.5" r="3.5" transform="rotate(-180 26.5 175.5)" fill="white"/>
<circle cx="49.5" cy="175.5" r="3.5" transform="rotate(-180 49.5 175.5)" fill="white"/>
<circle cx="72.5" cy="175.5" r="3.5" transform="rotate(-180 72.5 175.5)" fill="white"/>
<circle cx="95.5" cy="175.5" r="3.5" transform="rotate(-180 95.5 175.5)" fill="white"/>
<circle cx="118.5" cy="175.5" r="3.5" transform="rotate(-180 118.5 175.5)" fill="white"/>
</svg>
