<svg width="600" height="600" viewBox="0 0 600 600" fill="none" xmlns="http://www.w3.org/2000/svg">
<circle cx="300" cy="300" r="300" fill="white"/>
<circle cx="301.779" cy="300" r="177.866" fill="#13E929"/>
<circle cx="301.779" cy="300" r="120.059" fill="white"/>
<ellipse cx="301.779" cy="179.941" rx="31.1265" ry="31.1265" fill="#13E929"/>
<ellipse cx="421.838" cy="304.447" rx="31.1265" ry="31.1265" fill="#13E929"/>
<ellipse cx="181.719" cy="304.447" rx="31.1265" ry="31.1265" fill="#13E929"/>
<ellipse cx="332.905" cy="286.66" rx="26.6798" ry="26.6799" fill="#13E929"/>
<ellipse cx="275.099" cy="326.68" rx="17.7866" ry="17.7866" fill="#13E929"/>
<ellipse cx="212.846" cy="219.961" rx="31.1265" ry="31.1265" fill="#13E929"/>
<ellipse cx="195.059" cy="344.467" rx="13.3399" ry="13.3399" fill="white"/>
<ellipse cx="183.943" cy="257.757" rx="15.5632" ry="15.5632" fill="white"/>
<ellipse cx="412.945" cy="348.913" rx="13.3399" ry="13.3399" fill="white"/>
<ellipse cx="348.468" cy="408.943" rx="15.5632" ry="15.5632" fill="white"/>
<ellipse cx="250.642" cy="186.611" rx="20.0099" ry="20.0099" fill="white"/>
<ellipse cx="352.915" cy="186.611" rx="20.0099" ry="20.0099" fill="white"/>
<ellipse cx="250.642" cy="417.836" rx="20.0099" ry="20.0099" fill="white"/>
<ellipse cx="415.168" cy="257.757" rx="15.5633" ry="15.5632" fill="white"/>
<ellipse cx="390.711" cy="219.961" rx="31.1265" ry="31.1265" fill="#13E929"/>
<ellipse cx="212.846" cy="384.486" rx="31.1265" ry="31.1265" fill="#13E929"/>
<circle cx="390.711" cy="388.933" r="31.1265" fill="#13E929"/>
<ellipse cx="301.779" cy="415.613" rx="31.1265" ry="31.1265" fill="#13E929"/>
</svg>
